<mxfile host="app.diagrams.net" modified="2023-09-28T18:11:58.590Z" agent="Mozilla/5.0 (X11; Linux x86_64; rv:102.0) Gecko/20100101 Firefox/102.0" etag="mH83IJtjrmcaPdLsG1CG" version="21.8.2" type="github">
  <diagram name="Página-1" id="jBJ9VpsoCw2Dfvbga8rz">
    <mxGraphModel dx="1434" dy="669" grid="1" gridSize="10" guides="1" tooltips="1" connect="1" arrows="1" fold="1" page="1" pageScale="1" pageWidth="827" pageHeight="1169" math="0" shadow="0">
      <root>
        <mxCell id="0" />
        <mxCell id="1" parent="0" />
        <mxCell id="1kUQ3CuOV3ZIyobBTVks-3" value="" style="edgeStyle=orthogonalEdgeStyle;rounded=0;orthogonalLoop=1;jettySize=auto;html=1;endArrow=classic;endFill=1;" edge="1" parent="1" source="1kUQ3CuOV3ZIyobBTVks-1" target="1kUQ3CuOV3ZIyobBTVks-2">
          <mxGeometry relative="1" as="geometry" />
        </mxCell>
        <mxCell id="1kUQ3CuOV3ZIyobBTVks-7" value="" style="edgeStyle=orthogonalEdgeStyle;rounded=0;orthogonalLoop=1;jettySize=auto;html=1;" edge="1" parent="1" source="1kUQ3CuOV3ZIyobBTVks-1" target="1kUQ3CuOV3ZIyobBTVks-6">
          <mxGeometry relative="1" as="geometry" />
        </mxCell>
        <mxCell id="1kUQ3CuOV3ZIyobBTVks-1" value="Camionero" style="whiteSpace=wrap;html=1;fillColor=#ffe6cc;strokeColor=#d79b00;" vertex="1" parent="1">
          <mxGeometry x="480" y="220" width="120" height="60" as="geometry" />
        </mxCell>
        <mxCell id="1kUQ3CuOV3ZIyobBTVks-5" value="" style="edgeStyle=orthogonalEdgeStyle;rounded=0;orthogonalLoop=1;jettySize=auto;html=1;endArrow=none;endFill=0;startArrow=classic;startFill=1;" edge="1" parent="1" source="1kUQ3CuOV3ZIyobBTVks-2" target="1kUQ3CuOV3ZIyobBTVks-4">
          <mxGeometry relative="1" as="geometry" />
        </mxCell>
        <mxCell id="1kUQ3CuOV3ZIyobBTVks-2" value="Reparte" style="rhombus;whiteSpace=wrap;html=1;fillColor=#d5e8d4;strokeColor=#82b366;" vertex="1" parent="1">
          <mxGeometry x="700" y="210" width="80" height="80" as="geometry" />
        </mxCell>
        <mxCell id="1kUQ3CuOV3ZIyobBTVks-4" value="Paquete" style="whiteSpace=wrap;html=1;fillColor=#ffe6cc;strokeColor=#d79b00;" vertex="1" parent="1">
          <mxGeometry x="840" y="220" width="120" height="60" as="geometry" />
        </mxCell>
        <mxCell id="1kUQ3CuOV3ZIyobBTVks-9" value="" style="edgeStyle=orthogonalEdgeStyle;rounded=0;orthogonalLoop=1;jettySize=auto;html=1;endArrow=none;endFill=0;startArrow=classic;startFill=1;" edge="1" parent="1" source="1kUQ3CuOV3ZIyobBTVks-6" target="1kUQ3CuOV3ZIyobBTVks-8">
          <mxGeometry relative="1" as="geometry" />
        </mxCell>
        <mxCell id="1kUQ3CuOV3ZIyobBTVks-6" value="Conduce" style="rhombus;whiteSpace=wrap;html=1;fillColor=#d5e8d4;strokeColor=#82b366;" vertex="1" parent="1">
          <mxGeometry x="500" y="350" width="80" height="80" as="geometry" />
        </mxCell>
        <mxCell id="1kUQ3CuOV3ZIyobBTVks-8" value="Camión" style="whiteSpace=wrap;html=1;fillColor=#ffe6cc;strokeColor=#d79b00;" vertex="1" parent="1">
          <mxGeometry x="480" y="520" width="120" height="60" as="geometry" />
        </mxCell>
        <mxCell id="1kUQ3CuOV3ZIyobBTVks-19" style="edgeStyle=orthogonalEdgeStyle;rounded=0;orthogonalLoop=1;jettySize=auto;html=1;entryX=0.25;entryY=1;entryDx=0;entryDy=0;endArrow=none;endFill=0;" edge="1" parent="1" source="1kUQ3CuOV3ZIyobBTVks-10" target="1kUQ3CuOV3ZIyobBTVks-1">
          <mxGeometry relative="1" as="geometry" />
        </mxCell>
        <mxCell id="1kUQ3CuOV3ZIyobBTVks-10" value="Población" style="ellipse;whiteSpace=wrap;html=1;" vertex="1" parent="1">
          <mxGeometry x="390" y="280" width="60" height="30" as="geometry" />
        </mxCell>
        <mxCell id="1kUQ3CuOV3ZIyobBTVks-17" style="edgeStyle=orthogonalEdgeStyle;rounded=0;orthogonalLoop=1;jettySize=auto;html=1;entryX=1;entryY=0;entryDx=0;entryDy=0;endArrow=none;endFill=0;" edge="1" parent="1" source="1kUQ3CuOV3ZIyobBTVks-11" target="1kUQ3CuOV3ZIyobBTVks-1">
          <mxGeometry relative="1" as="geometry" />
        </mxCell>
        <mxCell id="1kUQ3CuOV3ZIyobBTVks-11" value="Salario" style="ellipse;whiteSpace=wrap;html=1;" vertex="1" parent="1">
          <mxGeometry x="580" y="140" width="70" height="30" as="geometry" />
        </mxCell>
        <mxCell id="1kUQ3CuOV3ZIyobBTVks-12" value="Dirección" style="ellipse;whiteSpace=wrap;html=1;" vertex="1" parent="1">
          <mxGeometry x="410" y="110" width="60" height="40" as="geometry" />
        </mxCell>
        <mxCell id="1kUQ3CuOV3ZIyobBTVks-13" value="Teléfono" style="ellipse;whiteSpace=wrap;html=1;" vertex="1" parent="1">
          <mxGeometry x="320" y="170" width="90" height="40" as="geometry" />
        </mxCell>
        <mxCell id="1kUQ3CuOV3ZIyobBTVks-20" style="edgeStyle=orthogonalEdgeStyle;rounded=0;orthogonalLoop=1;jettySize=auto;html=1;entryX=0;entryY=0.75;entryDx=0;entryDy=0;endArrow=none;endFill=0;" edge="1" parent="1" source="1kUQ3CuOV3ZIyobBTVks-14" target="1kUQ3CuOV3ZIyobBTVks-1">
          <mxGeometry relative="1" as="geometry" />
        </mxCell>
        <mxCell id="1kUQ3CuOV3ZIyobBTVks-14" value="Nombre" style="ellipse;whiteSpace=wrap;html=1;" vertex="1" parent="1">
          <mxGeometry x="320" y="240" width="70" height="30" as="geometry" />
        </mxCell>
        <mxCell id="1kUQ3CuOV3ZIyobBTVks-15" value="&lt;u&gt;&lt;b&gt;DNI&lt;/b&gt;&lt;/u&gt;" style="ellipse;whiteSpace=wrap;html=1;fillColor=#dae8fc;strokeColor=#6c8ebf;" vertex="1" parent="1">
          <mxGeometry x="500" y="150" width="60" height="40" as="geometry" />
        </mxCell>
        <mxCell id="1kUQ3CuOV3ZIyobBTVks-16" style="edgeStyle=orthogonalEdgeStyle;rounded=0;orthogonalLoop=1;jettySize=auto;html=1;entryX=0.45;entryY=-0.017;entryDx=0;entryDy=0;entryPerimeter=0;endArrow=none;endFill=0;" edge="1" parent="1" source="1kUQ3CuOV3ZIyobBTVks-15" target="1kUQ3CuOV3ZIyobBTVks-1">
          <mxGeometry relative="1" as="geometry" />
        </mxCell>
        <mxCell id="1kUQ3CuOV3ZIyobBTVks-18" style="edgeStyle=orthogonalEdgeStyle;rounded=0;orthogonalLoop=1;jettySize=auto;html=1;entryX=0;entryY=0.4;entryDx=0;entryDy=0;entryPerimeter=0;endArrow=none;endFill=0;" edge="1" parent="1" source="1kUQ3CuOV3ZIyobBTVks-13" target="1kUQ3CuOV3ZIyobBTVks-1">
          <mxGeometry relative="1" as="geometry" />
        </mxCell>
        <mxCell id="1kUQ3CuOV3ZIyobBTVks-21" style="edgeStyle=orthogonalEdgeStyle;rounded=0;orthogonalLoop=1;jettySize=auto;html=1;entryX=0.092;entryY=0;entryDx=0;entryDy=0;entryPerimeter=0;endArrow=none;endFill=0;" edge="1" parent="1" source="1kUQ3CuOV3ZIyobBTVks-12" target="1kUQ3CuOV3ZIyobBTVks-1">
          <mxGeometry relative="1" as="geometry" />
        </mxCell>
        <mxCell id="1kUQ3CuOV3ZIyobBTVks-26" style="edgeStyle=orthogonalEdgeStyle;rounded=0;orthogonalLoop=1;jettySize=auto;html=1;entryX=0.5;entryY=1;entryDx=0;entryDy=0;endArrow=none;endFill=0;" edge="1" parent="1" source="1kUQ3CuOV3ZIyobBTVks-22" target="1kUQ3CuOV3ZIyobBTVks-4">
          <mxGeometry relative="1" as="geometry" />
        </mxCell>
        <mxCell id="1kUQ3CuOV3ZIyobBTVks-22" value="&lt;div&gt;Dirección&lt;/div&gt;&lt;div&gt;destinatario&lt;br&gt;&lt;/div&gt;" style="ellipse;whiteSpace=wrap;html=1;" vertex="1" parent="1">
          <mxGeometry x="855" y="330" width="90" height="50" as="geometry" />
        </mxCell>
        <mxCell id="1kUQ3CuOV3ZIyobBTVks-27" style="edgeStyle=orthogonalEdgeStyle;rounded=0;orthogonalLoop=1;jettySize=auto;html=1;entryX=1;entryY=0.75;entryDx=0;entryDy=0;endArrow=none;endFill=0;" edge="1" parent="1" source="1kUQ3CuOV3ZIyobBTVks-23" target="1kUQ3CuOV3ZIyobBTVks-4">
          <mxGeometry relative="1" as="geometry" />
        </mxCell>
        <mxCell id="1kUQ3CuOV3ZIyobBTVks-23" value="Destinatario" style="ellipse;whiteSpace=wrap;html=1;" vertex="1" parent="1">
          <mxGeometry x="960" y="290" width="80" height="50" as="geometry" />
        </mxCell>
        <mxCell id="1kUQ3CuOV3ZIyobBTVks-24" value="Descripción" style="ellipse;whiteSpace=wrap;html=1;" vertex="1" parent="1">
          <mxGeometry x="920" y="160" width="60" height="40" as="geometry" />
        </mxCell>
        <mxCell id="1kUQ3CuOV3ZIyobBTVks-28" style="edgeStyle=orthogonalEdgeStyle;rounded=0;orthogonalLoop=1;jettySize=auto;html=1;entryX=0.25;entryY=0;entryDx=0;entryDy=0;endArrow=none;endFill=0;" edge="1" parent="1" source="1kUQ3CuOV3ZIyobBTVks-25" target="1kUQ3CuOV3ZIyobBTVks-4">
          <mxGeometry relative="1" as="geometry" />
        </mxCell>
        <mxCell id="1kUQ3CuOV3ZIyobBTVks-25" value="&lt;u&gt;&lt;b&gt;Código&lt;/b&gt;&lt;/u&gt;" style="ellipse;whiteSpace=wrap;html=1;fillColor=#dae8fc;strokeColor=#6c8ebf;" vertex="1" parent="1">
          <mxGeometry x="840" y="160" width="50" height="30" as="geometry" />
        </mxCell>
        <mxCell id="1kUQ3CuOV3ZIyobBTVks-29" style="edgeStyle=orthogonalEdgeStyle;rounded=0;orthogonalLoop=1;jettySize=auto;html=1;entryX=0.917;entryY=0.167;entryDx=0;entryDy=0;entryPerimeter=0;endArrow=none;endFill=0;" edge="1" parent="1" source="1kUQ3CuOV3ZIyobBTVks-24" target="1kUQ3CuOV3ZIyobBTVks-4">
          <mxGeometry relative="1" as="geometry" />
        </mxCell>
        <mxCell id="1kUQ3CuOV3ZIyobBTVks-36" style="edgeStyle=orthogonalEdgeStyle;rounded=0;orthogonalLoop=1;jettySize=auto;html=1;entryX=0;entryY=0.5;entryDx=0;entryDy=0;endArrow=none;endFill=0;" edge="1" parent="1" source="1kUQ3CuOV3ZIyobBTVks-31" target="1kUQ3CuOV3ZIyobBTVks-8">
          <mxGeometry relative="1" as="geometry" />
        </mxCell>
        <mxCell id="1kUQ3CuOV3ZIyobBTVks-31" value="Potencia" style="ellipse;whiteSpace=wrap;html=1;" vertex="1" parent="1">
          <mxGeometry x="370" y="530" width="70" height="40" as="geometry" />
        </mxCell>
        <mxCell id="1kUQ3CuOV3ZIyobBTVks-32" value="Tipo" style="ellipse;whiteSpace=wrap;html=1;" vertex="1" parent="1">
          <mxGeometry x="580" y="470" width="40" height="30" as="geometry" />
        </mxCell>
        <mxCell id="1kUQ3CuOV3ZIyobBTVks-33" value="Modelo" style="ellipse;whiteSpace=wrap;html=1;" vertex="1" parent="1">
          <mxGeometry x="390" y="460" width="70" height="40" as="geometry" />
        </mxCell>
        <mxCell id="1kUQ3CuOV3ZIyobBTVks-38" style="edgeStyle=orthogonalEdgeStyle;rounded=0;orthogonalLoop=1;jettySize=auto;html=1;entryX=1;entryY=0.5;entryDx=0;entryDy=0;endArrow=none;endFill=0;" edge="1" parent="1" source="1kUQ3CuOV3ZIyobBTVks-34" target="1kUQ3CuOV3ZIyobBTVks-8">
          <mxGeometry relative="1" as="geometry" />
        </mxCell>
        <mxCell id="1kUQ3CuOV3ZIyobBTVks-34" value="&lt;u&gt;&lt;b&gt;Matrícula&lt;/b&gt;&lt;/u&gt;" style="ellipse;whiteSpace=wrap;html=1;fillColor=#dae8fc;strokeColor=#6c8ebf;" vertex="1" parent="1">
          <mxGeometry x="630" y="530" width="70" height="40" as="geometry" />
        </mxCell>
        <mxCell id="1kUQ3CuOV3ZIyobBTVks-35" style="edgeStyle=orthogonalEdgeStyle;rounded=0;orthogonalLoop=1;jettySize=auto;html=1;entryX=0.058;entryY=0.017;entryDx=0;entryDy=0;entryPerimeter=0;endArrow=none;endFill=0;" edge="1" parent="1" source="1kUQ3CuOV3ZIyobBTVks-33" target="1kUQ3CuOV3ZIyobBTVks-8">
          <mxGeometry relative="1" as="geometry" />
        </mxCell>
        <mxCell id="1kUQ3CuOV3ZIyobBTVks-37" style="edgeStyle=orthogonalEdgeStyle;rounded=0;orthogonalLoop=1;jettySize=auto;html=1;exitX=0.5;exitY=1;exitDx=0;exitDy=0;entryX=0.908;entryY=-0.017;entryDx=0;entryDy=0;entryPerimeter=0;" edge="1" parent="1" source="1kUQ3CuOV3ZIyobBTVks-32" target="1kUQ3CuOV3ZIyobBTVks-8">
          <mxGeometry relative="1" as="geometry" />
        </mxCell>
        <mxCell id="1kUQ3CuOV3ZIyobBTVks-41" value="1:1" style="text;html=1;align=center;verticalAlign=middle;resizable=0;points=[];autosize=1;strokeColor=none;fillColor=none;" vertex="1" parent="1">
          <mxGeometry x="601" y="218" width="40" height="30" as="geometry" />
        </mxCell>
        <mxCell id="1kUQ3CuOV3ZIyobBTVks-42" value="1:N" style="text;html=1;align=center;verticalAlign=middle;resizable=0;points=[];autosize=1;strokeColor=none;fillColor=none;" vertex="1" parent="1">
          <mxGeometry x="781" y="218" width="40" height="30" as="geometry" />
        </mxCell>
        <mxCell id="1kUQ3CuOV3ZIyobBTVks-43" value="1:N" style="text;html=1;align=center;verticalAlign=middle;resizable=0;points=[];autosize=1;strokeColor=none;fillColor=none;" vertex="1" parent="1">
          <mxGeometry x="720" y="175" width="40" height="30" as="geometry" />
        </mxCell>
        <mxCell id="1kUQ3CuOV3ZIyobBTVks-44" value="1:1" style="text;html=1;align=center;verticalAlign=middle;resizable=0;points=[];autosize=1;strokeColor=none;fillColor=none;" vertex="1" parent="1">
          <mxGeometry x="541" y="438" width="40" height="30" as="geometry" />
        </mxCell>
        <mxCell id="1kUQ3CuOV3ZIyobBTVks-45" value="1:1" style="text;html=1;align=center;verticalAlign=middle;resizable=0;points=[];autosize=1;strokeColor=none;fillColor=none;" vertex="1" parent="1">
          <mxGeometry x="541" y="298" width="40" height="30" as="geometry" />
        </mxCell>
        <mxCell id="1kUQ3CuOV3ZIyobBTVks-46" value="1:1" style="text;html=1;align=center;verticalAlign=middle;resizable=0;points=[];autosize=1;strokeColor=none;fillColor=none;" vertex="1" parent="1">
          <mxGeometry x="580" y="375" width="40" height="30" as="geometry" />
        </mxCell>
      </root>
    </mxGraphModel>
  </diagram>
</mxfile>
